<svg width="112" height="27" viewBox="0 0 112 27" fill="none" xmlns="http://www.w3.org/2000/svg">
<path d="M56.4312 14.7258C55.6258 14.7277 54.839 14.9684 54.1704 15.4174C53.5017 15.8665 52.9813 16.5037 52.6748 17.2485C52.3683 17.9934 52.2896 18.8124 52.4486 19.602C52.6076 20.3916 52.9971 21.1163 53.568 21.6845C54.1388 22.2527 54.8654 22.6388 55.6557 22.7941C56.446 22.9494 57.2646 22.8668 58.008 22.5568C58.7514 22.2469 59.3862 21.7234 59.8321 21.0527C60.278 20.3819 60.515 19.594 60.5131 18.7886C60.5209 18.2513 60.4205 17.7179 60.2179 17.2202C60.0153 16.7225 59.7146 16.2707 59.3337 15.8916C58.9529 15.5125 58.4996 15.2139 58.001 15.0136C57.5023 14.8134 56.9685 14.7155 56.4312 14.7258ZM56.4312 21.2549C55.9376 21.2895 55.4449 21.1747 55.0173 20.9255C54.5898 20.6763 54.247 20.3043 54.0337 19.8578C53.8204 19.4112 53.7463 18.9108 53.8212 18.4216C53.896 17.9324 54.1163 17.4771 54.4533 17.1147C54.7904 16.7524 55.2287 16.4998 55.7112 16.3899C56.1937 16.2799 56.6981 16.3177 57.1589 16.4982C57.6197 16.6787 58.0155 16.9937 58.2949 17.4022C58.5743 17.8106 58.7243 18.2937 58.7255 18.7886C58.7409 19.1021 58.6934 19.4156 58.5857 19.7105C58.478 20.0054 58.3124 20.2758 58.0985 20.5056C57.8847 20.7355 57.627 20.9202 57.3407 21.0489C57.0543 21.1776 56.7451 21.2477 56.4312 21.2549ZM47.5218 14.7258C46.7163 14.7277 45.9295 14.9684 45.2609 15.4174C44.5923 15.8665 44.0718 16.5037 43.7653 17.2485C43.4588 17.9934 43.3801 18.8124 43.5391 19.602C43.6981 20.3916 44.0876 21.1163 44.6585 21.6845C45.2294 22.2527 45.9559 22.6388 46.7462 22.7941C47.5366 22.9494 48.3552 22.8668 49.0986 22.5568C49.842 22.2469 50.4768 21.7234 50.9227 21.0527C51.3686 20.3819 51.6056 19.594 51.6037 18.7886C51.6115 18.2513 51.5111 17.7179 51.3084 17.2202C51.1058 16.7225 50.8051 16.2707 50.4243 15.8916C50.0434 15.5125 49.5902 15.2139 49.0915 15.0136C48.5929 14.8134 48.059 14.7155 47.5218 14.7258ZM47.5218 21.2549C47.0281 21.2895 46.5354 21.1747 46.1079 20.9255C45.6803 20.6763 45.3376 20.3043 45.1243 19.8578C44.9109 19.4112 44.8369 18.9108 44.9117 18.4216C44.9865 17.9324 45.2068 17.4771 45.5439 17.1147C45.8809 16.7524 46.3192 16.4998 46.8017 16.3899C47.2842 16.2799 47.7886 16.3177 48.2494 16.4982C48.7102 16.6787 49.106 16.9937 49.3854 17.4022C49.6648 17.8106 49.8148 18.2937 49.816 18.7886C49.8314 19.1021 49.7839 19.4156 49.6762 19.7105C49.5685 20.0054 49.4029 20.2758 49.1891 20.5056C48.9752 20.7355 48.7176 20.9202 48.4312 21.0489C48.1448 21.1776 47.8356 21.2477 47.5218 21.2549ZM36.9298 15.9781V17.6988H41.0595C40.9948 18.5093 40.6579 19.274 40.1036 19.8688C39.6893 20.2909 39.1911 20.6213 38.6411 20.8386C38.0911 21.056 37.5016 21.1555 36.9107 21.1307C35.6937 21.1307 34.5266 20.6472 33.6661 19.7867C32.8056 18.9262 32.3221 17.7591 32.3221 16.5421C32.3221 15.3251 32.8056 14.158 33.6661 13.2975C34.5266 12.437 35.6937 11.9535 36.9107 11.9535C38.0774 11.9362 39.2039 12.3792 40.0462 13.1867L41.2603 11.9726C40.6905 11.4091 40.014 10.965 39.2704 10.6662C38.5268 10.3675 37.7311 10.2201 36.9298 10.2328C36.08 10.1997 35.2322 10.3386 34.4373 10.641C33.6424 10.9434 32.9167 11.4031 32.3037 11.9927C31.6908 12.5823 31.2031 13.2896 30.87 14.0721C30.5369 14.8546 30.3652 15.6964 30.3652 16.5469C30.3652 17.3974 30.5369 18.2391 30.87 19.0216C31.2031 19.8042 31.6908 20.5114 32.3037 21.101C32.9167 21.6906 33.6424 22.1504 34.4373 22.4528C35.2322 22.7552 36.08 22.894 36.9298 22.8609C37.7475 22.8936 38.5629 22.7529 39.3225 22.4481C40.082 22.1433 40.7684 21.6813 41.3367 21.0924C42.3406 19.9896 42.8755 18.5393 42.828 17.0487C42.8315 16.69 42.8027 16.3317 42.742 15.9781H36.9298ZM80.244 17.3164C79.9947 16.5829 79.5285 15.9425 78.9071 15.4799C78.2857 15.0173 77.5385 14.7543 76.7643 14.7258C76.2414 14.7248 75.7239 14.831 75.2436 15.0379C74.7634 15.2449 74.3307 15.5481 73.9724 15.9289C73.614 16.3097 73.3375 16.7599 73.16 17.2518C72.9825 17.7436 72.9078 18.2667 72.9405 18.7886C72.9324 19.6612 73.2067 20.5131 73.7226 21.2169C74.2385 21.9208 74.9683 22.4389 75.8029 22.6938C76.6375 22.9487 77.5322 22.9267 78.3533 22.6312C79.1744 22.3357 79.8779 21.7825 80.3587 21.0542L78.9726 20.0982C78.7659 20.4426 78.4729 20.7271 78.1224 20.9232C77.7719 21.1194 77.3763 21.2206 76.9746 21.2167C76.5603 21.2338 76.1505 21.1252 75.799 20.9051C75.4476 20.685 75.1709 20.3637 75.0054 19.9835L80.4447 17.737L80.244 17.3164ZM74.6995 18.6739C74.6801 18.3774 74.7202 18.0801 74.8175 17.7994C74.9148 17.5187 75.0672 17.2602 75.2658 17.0393C75.4645 16.8184 75.7053 16.6395 75.9742 16.513C76.243 16.3866 76.5344 16.3152 76.8313 16.3031C77.1382 16.2835 77.4442 16.3546 77.7111 16.5075C77.978 16.6605 78.1939 16.8886 78.3321 17.1635L74.6995 18.6739ZM70.283 22.6124H72.0706V10.663H70.283V22.6124ZM67.3578 15.6339H67.2908C67.0194 15.3385 66.6879 15.1046 66.3185 14.9479C65.9492 14.7913 65.5506 14.7156 65.1495 14.7258C64.1048 14.7764 63.1197 15.2271 62.3983 15.9844C61.6768 16.7416 61.2744 17.7475 61.2744 18.7934C61.2744 19.8393 61.6768 20.8451 62.3983 21.6023C63.1197 22.3596 64.1048 22.8103 65.1495 22.8609C65.5548 22.8691 65.9569 22.7876 66.327 22.6223C66.6972 22.4571 67.0263 22.2121 67.2908 21.905H67.3578V22.4881C67.3578 24.0463 66.5261 24.878 65.1878 24.878C64.7407 24.8682 64.3066 24.7257 63.9407 24.4687C63.5747 24.2117 63.2934 23.8517 63.1325 23.4345L61.5838 24.075C61.8701 24.7941 62.3679 25.4094 63.0114 25.8395C63.6549 26.2697 64.4138 26.4944 65.1878 26.484C67.2813 26.484 69.0116 25.2508 69.0116 22.2491V14.9648H67.3578V15.6339ZM65.3025 21.2549C64.6761 21.2159 64.0882 20.9395 63.6585 20.4822C63.2288 20.0249 62.9896 19.4209 62.9896 18.7934C62.9896 18.1658 63.2288 17.5619 63.6585 17.1045C64.0882 16.6472 64.6761 16.3708 65.3025 16.3318C65.6086 16.345 65.9089 16.4196 66.1856 16.5513C66.4623 16.683 66.7097 16.8689 66.9131 17.0981C67.1164 17.3274 67.2716 17.5951 67.3693 17.8855C67.4671 18.176 67.5054 18.4831 67.482 18.7886C67.5081 19.0951 67.4717 19.4038 67.3751 19.6959C67.2785 19.988 67.1236 20.2575 66.9199 20.4881C66.7162 20.7186 66.4678 20.9054 66.1898 21.0373C65.9118 21.1691 65.6099 21.2431 65.3025 21.2549ZM88.6181 10.663H84.3355V22.6124H86.1231V18.0812H88.6181C89.1276 18.1178 89.6392 18.049 90.1209 17.8792C90.6026 17.7094 91.0442 17.4422 91.4181 17.0941C91.792 16.7461 92.0902 16.3248 92.2941 15.8565C92.498 15.3882 92.6033 14.8829 92.6033 14.3721C92.6033 13.8613 92.498 13.356 92.2941 12.8876C92.0902 12.4193 91.792 11.998 91.4181 11.65C91.0442 11.302 90.6026 11.0348 90.1209 10.865C89.6392 10.6951 89.1276 10.6264 88.6181 10.663ZM88.6181 16.3987H86.1231V12.3263H88.6564C89.1989 12.3263 89.7193 12.5419 90.1029 12.9255C90.4866 13.3092 90.7021 13.8295 90.7021 14.3721C90.7021 14.9146 90.4866 15.435 90.1029 15.8186C89.7193 16.2023 89.1989 16.4178 88.6564 16.4178L88.6181 16.3987ZM99.6498 14.6875C98.9988 14.6474 98.3503 14.799 97.7846 15.1235C97.2188 15.448 96.7605 15.9312 96.4665 16.5134L98.0438 17.173C98.2032 16.8857 98.4424 16.6506 98.7325 16.4962C99.0226 16.3419 99.3511 16.2748 99.6785 16.3031C99.9054 16.2766 100.135 16.2956 100.355 16.3589C100.574 16.4222 100.779 16.5286 100.957 16.6718C101.135 16.8151 101.283 16.9924 101.391 17.1933C101.5 17.3942 101.568 17.6148 101.59 17.8422V17.9569C101.016 17.6547 100.376 17.4972 99.7263 17.498C98.0247 17.498 96.2849 18.454 96.2849 20.1938C96.3017 20.5636 96.3927 20.9263 96.5524 21.2602C96.7121 21.5942 96.9373 21.8926 97.2147 22.1379C97.492 22.3831 97.8158 22.5701 98.1667 22.6877C98.5177 22.8054 98.8888 22.8513 99.2579 22.8227C99.7065 22.8475 100.154 22.7526 100.553 22.5476C100.953 22.3427 101.291 22.0351 101.533 21.6564H101.59V22.6124H103.311V18.0143C103.311 15.9207 101.724 14.7067 99.6881 14.7067L99.6498 14.6875ZM99.43 21.2358C98.8468 21.2358 98.0343 20.9395 98.0343 20.2225C98.0343 19.2666 99.0476 18.9415 99.9462 18.9415C100.514 18.9275 101.075 19.0662 101.571 19.343C101.511 19.8622 101.265 20.342 100.878 20.6935C100.492 21.0451 99.9907 21.2445 99.4682 21.2549L99.43 21.2358ZM109.582 14.9648L107.536 20.146H107.479L105.357 14.9648H103.445L106.628 22.2109L104.812 26.2355H106.724L111.571 14.9648H109.582ZM93.5222 22.6124H95.3002V10.663H93.5222V22.6124Z" fill="white"/>
<path d="M1.26622 1.15188C0.953044 1.54231 0.80546 2.03997 0.855157 2.53801V23.6646C0.826052 24.1504 0.983317 24.629 1.29489 25.0029L1.37137 25.0794L13.1774 13.1969V12.9101L1.34269 1.08496L1.26622 1.15188Z" fill="#5BC9F4"/>
<path d="M17.1045 17.1355L13.166 13.197V12.9102L17.1045 8.97168H17.2001L21.8843 11.677C23.2131 12.4322 23.2131 13.675 21.8843 14.4302L17.2097 17.0877L17.1045 17.1355Z" fill="url(#paint0_linear)"/>
<path d="M17.2148 17.0873L13.1807 13.0532L1.26953 24.9548C1.54147 25.1964 1.88973 25.3345 2.25329 25.345C2.61685 25.3554 2.97251 25.2376 3.25791 25.0122L17.2148 17.0873Z" fill="url(#paint1_linear)"/>
<path d="M17.2148 9.01998L3.25791 1.09514C2.97251 0.869684 2.61685 0.751876 2.25329 0.762363C1.88973 0.77285 1.54147 0.910965 1.26953 1.1525L13.1807 13.0541L17.2148 9.01998Z" fill="url(#paint2_linear)"/>
<path d="M31.5494 7.57575H30.8516V5.66385H31.4443C31.7109 5.37435 31.9115 5.03033 32.0319 4.65562C32.1524 4.28092 32.19 3.8845 32.1421 3.49383V0.625977H35.9659V5.65428H36.6064V7.56619H35.899V6.36169H31.5494V7.57575ZM32.8782 3.49383C32.9208 4.26174 32.7309 5.02466 32.3333 5.68296H35.2011V1.33338H32.8782V3.49383Z" fill="white" stroke="white" stroke-width="0.166667" stroke-miterlimit="10"/>
<path d="M42.353 5.61606C42.0769 5.89239 41.749 6.1116 41.3881 6.26116C41.0273 6.41071 40.6405 6.48769 40.2499 6.48769C39.8592 6.48769 39.4724 6.41071 39.1116 6.26116C38.7507 6.1116 38.4229 5.89239 38.1468 5.61606C37.8723 5.33614 37.6566 5.00423 37.5121 4.6398C37.3676 4.27538 37.2974 3.88578 37.3055 3.49385C37.2962 3.10259 37.3649 2.71339 37.5077 2.349C37.6505 1.98461 37.8645 1.65234 38.1372 1.37163C38.4133 1.09531 38.7412 0.876099 39.102 0.72654C39.4629 0.57698 39.8497 0.5 40.2403 0.5C40.6309 0.5 41.0177 0.57698 41.3786 0.72654C41.7394 0.876099 42.0673 1.09531 42.3434 1.37163C42.6213 1.64998 42.8406 1.98117 42.9884 2.34567C43.1361 2.71017 43.2094 3.10058 43.2038 3.49385C43.2151 3.88702 43.1454 4.27832 42.999 4.64341C42.8526 5.0085 42.6327 5.33958 42.353 5.61606ZM38.6917 5.13809C38.8931 5.34729 39.1353 5.51292 39.4033 5.62473C39.6714 5.73655 39.9595 5.79216 40.2499 5.78813C40.5405 5.79389 40.8291 5.73907 41.0974 5.62715C41.3657 5.51523 41.6077 5.34868 41.8081 5.13809C42.0217 4.92243 42.1887 4.66523 42.2989 4.38241C42.409 4.09958 42.46 3.79716 42.4486 3.49385C42.46 3.19054 42.409 2.88811 42.2989 2.60529C42.1887 2.32246 42.0217 2.06526 41.8081 1.84961C41.6077 1.63902 41.3657 1.47246 41.0974 1.36054C40.8291 1.24863 40.5405 1.1938 40.2499 1.19956C39.9595 1.19553 39.6714 1.25115 39.4033 1.36296C39.1353 1.47477 38.8931 1.64041 38.6917 1.84961C38.4812 2.06705 38.3168 2.32478 38.2084 2.60733C38.0999 2.88987 38.0497 3.19141 38.0607 3.49385C38.0497 3.79628 38.0999 4.09782 38.2084 4.38037C38.3168 4.66292 38.4812 4.92065 38.6917 5.13809Z" fill="white" stroke="white" stroke-width="0.166667" stroke-miterlimit="10"/>
<path d="M46.9126 6.48629C46.5258 6.49236 46.1418 6.42011 45.7837 6.2739C45.4255 6.12768 45.1007 5.91053 44.8286 5.63549C44.5447 5.35762 44.3217 5.02379 44.1736 4.65518C44.0255 4.28657 43.9555 3.89121 43.9683 3.49416C43.9592 3.09954 44.03 2.70717 44.1766 2.34066C44.3231 1.97415 44.5423 1.64109 44.821 1.36154C45.0996 1.08198 45.432 0.861717 45.798 0.714003C46.1641 0.566289 46.5562 0.494184 46.9508 0.502028C47.351 0.490706 47.7485 0.57094 48.113 0.736612C48.4775 0.902283 48.7993 1.14901 49.0539 1.45798L48.5473 1.95508C48.3595 1.71362 48.1165 1.52075 47.8387 1.39267C47.5609 1.26458 47.2564 1.20502 46.9508 1.21899C46.6566 1.21149 46.3639 1.26446 46.091 1.37463C45.818 1.4848 45.5706 1.64982 45.364 1.85948C45.1442 2.07041 44.9705 2.32452 44.8536 2.60584C44.7368 2.88716 44.6795 3.18961 44.6852 3.49416C44.6719 3.79912 44.7219 4.10353 44.8322 4.38818C44.9424 4.67283 45.1105 4.93153 45.3257 5.14796C45.5323 5.35762 45.7798 5.52264 46.0527 5.63281C46.3257 5.74298 46.6183 5.79595 46.9126 5.78844C47.246 5.787 47.575 5.71167 47.8759 5.56786C48.1767 5.42406 48.4419 5.21535 48.6524 4.95677L49.1686 5.46342C48.9068 5.77725 48.5808 6.03148 48.2127 6.20906C47.806 6.39905 47.3614 6.49386 46.9126 6.48629Z" fill="white" stroke="white" stroke-width="0.166667" stroke-miterlimit="10"/>
<path d="M52.1741 6.36169H51.438V1.33338H49.832V0.625977H53.7706V1.33338H52.1741V6.36169Z" fill="white" stroke="white" stroke-width="0.166667" stroke-miterlimit="10"/>
<path d="M58.839 0.625977L56.669 5.46309C56.6163 5.65703 56.5222 5.83721 56.393 5.99114C56.2638 6.14507 56.1027 6.26907 55.9208 6.35454C55.739 6.44002 55.5407 6.48493 55.3397 6.48617C55.1388 6.4874 54.94 6.44493 54.7571 6.36169L54.9483 5.68296C55.0652 5.74869 55.1965 5.78479 55.3306 5.78812C55.4721 5.79521 55.6123 5.75849 55.7321 5.68296C55.8483 5.58634 55.9372 5.46114 55.9902 5.3197L56.2006 4.86085L54.2695 0.625977H55.1394L56.5543 3.91445L57.9691 0.625977H58.839Z" fill="white" stroke="white" stroke-width="0.166667" stroke-miterlimit="10"/>
<path d="M59.668 6.36169V0.625977H63.8168V6.36169H63.0807V1.33338H60.4041V6.36169H59.668Z" fill="white" stroke="white" stroke-width="0.166667" stroke-miterlimit="10"/>
<path d="M65.127 6.36169V0.625977H65.863V3.08277H68.7309V0.625977H69.4765V6.36169H68.7309V3.77106H65.863V6.36169H65.127Z" fill="white" stroke="white" stroke-width="0.166667" stroke-miterlimit="10"/>
<path d="M75.48 5.61622C75.2039 5.89255 74.8761 6.11175 74.5152 6.26131C74.1544 6.41087 73.7676 6.48785 73.377 6.48785C72.9863 6.48785 72.5995 6.41087 72.2387 6.26131C71.8778 6.11175 71.55 5.89255 71.2739 5.61622C70.9941 5.33974 70.7742 5.00866 70.6278 4.64357C70.4815 4.27848 70.4118 3.88718 70.4231 3.49401C70.4118 3.10083 70.4815 2.70954 70.6278 2.34445C70.7742 1.97936 70.9941 1.64828 71.2739 1.37179C71.5491 1.09576 71.8762 0.876755 72.2363 0.727325C72.5963 0.577895 72.9823 0.500977 73.3722 0.500977C73.762 0.500977 74.148 0.577895 74.5081 0.727325C74.8682 0.876755 75.1952 1.09576 75.4705 1.37179C75.7503 1.64828 75.9702 1.97936 76.1165 2.34445C76.2629 2.70954 76.3326 3.10083 76.3213 3.49401C76.3338 3.88649 76.2656 4.27737 76.1209 4.64243C75.9762 5.00748 75.7581 5.33892 75.48 5.61622ZM71.8188 5.13825C72.0191 5.34884 72.2611 5.51539 72.5294 5.62731C72.7977 5.73923 73.0863 5.79405 73.377 5.78829C73.6673 5.79232 73.9555 5.73671 74.2235 5.62489C74.4915 5.51308 74.7337 5.34745 74.9352 5.13825C75.1456 4.92081 75.31 4.66308 75.4185 4.38053C75.5269 4.09798 75.5771 3.79644 75.5661 3.49401C75.5771 3.19157 75.5269 2.89003 75.4185 2.60748C75.31 2.32494 75.1456 2.06721 74.9352 1.84977C74.7337 1.64057 74.4915 1.47493 74.2235 1.36312C73.9555 1.25131 73.6673 1.19569 73.377 1.19972C73.0863 1.19396 72.7977 1.24879 72.5294 1.3607C72.2611 1.47262 72.0191 1.63918 71.8188 1.84977C71.6052 2.06542 71.4381 2.32262 71.3279 2.60545C71.2178 2.88827 71.1668 3.1907 71.1783 3.49401C71.1668 3.79732 71.2178 4.09974 71.3279 4.38257C71.4381 4.66539 71.6052 4.92259 71.8188 5.13825Z" fill="white" stroke="white" stroke-width="0.166667" stroke-miterlimit="10"/>
<path d="M79.3301 6.36178V0.626063H81.4045C81.8345 0.621747 82.2506 0.778627 82.5708 1.0658C82.73 1.20485 82.857 1.37696 82.9428 1.57014C83.0287 1.76332 83.0713 1.9729 83.0679 2.18427C83.0702 2.44178 82.9971 2.69433 82.8575 2.91079C82.7164 3.11604 82.5212 3.27818 82.2935 3.37921C82.5682 3.47108 82.8083 3.64449 82.9818 3.8763C83.1643 4.10758 83.2621 4.39431 83.259 4.68886C83.2639 4.90924 83.2202 5.12798 83.131 5.32955C83.0418 5.53112 82.9092 5.71056 82.7428 5.85512C82.411 6.16387 81.9724 6.3318 81.5192 6.32354L79.3301 6.36178ZM80.0662 3.08286H81.4045C81.5297 3.0901 81.655 3.06893 81.7708 3.02092C81.8867 2.97291 81.9903 2.89931 82.0737 2.80563C82.2358 2.64679 82.3285 2.43032 82.3318 2.20338C82.3408 1.97574 82.2621 1.75332 82.1119 1.58202C82.0315 1.49287 81.9324 1.42263 81.8217 1.37634C81.7109 1.33006 81.5913 1.30889 81.4714 1.31435H80.0662V3.08286ZM80.0662 5.65437H81.5479C81.6789 5.65947 81.8093 5.63555 81.93 5.58432C82.0506 5.53308 82.1585 5.45581 82.2457 5.35803C82.4108 5.18173 82.503 4.94949 82.5038 4.70798C82.498 4.46849 82.4025 4.23991 82.2362 4.06749C82.144 3.97073 82.0326 3.89436 81.9091 3.84332C81.7856 3.79228 81.6528 3.76769 81.5192 3.77115H80.0662V5.65437Z" fill="white" stroke="white" stroke-width="0.166667" stroke-miterlimit="10"/>
<defs>
<linearGradient id="paint0_linear" x1="21.0144" y1="13.0536" x2="-2.10054" y2="13.0536" gradientUnits="userSpaceOnUse">
<stop stop-color="#FEE000"/>
<stop offset="0.42" stop-color="#FBBC0E"/>
<stop offset="0.78" stop-color="#FAA418"/>
<stop offset="1" stop-color="#F99B1C"/>
</linearGradient>
<linearGradient id="paint1_linear" x1="15.0161" y1="15.2424" x2="-6.72223" y2="36.9807" gradientUnits="userSpaceOnUse">
<stop stop-color="#EF4547"/>
<stop offset="1" stop-color="#C6186D"/>
</linearGradient>
<linearGradient id="paint2_linear" x1="-6.81782" y1="-10.969" x2="10.9342" y2="6.77349" gradientUnits="userSpaceOnUse">
<stop stop-color="#279E6F"/>
<stop offset="0.04" stop-color="#2BA06F"/>
<stop offset="0.46" stop-color="#53B26C"/>
<stop offset="0.8" stop-color="#6BBD6A"/>
<stop offset="1" stop-color="#74C169"/>
</linearGradient>
</defs>
</svg>
