<svg width="111" height="30" viewBox="0 0 111 30" fill="none" xmlns="http://www.w3.org/2000/svg">
<path d="M18.1271 13.7837C18.0981 10.5607 20.7661 8.99271 20.8881 8.91971C19.3771 6.71671 17.0351 6.41571 16.2121 6.39171C14.2451 6.18471 12.3371 7.56871 11.3351 7.56871C10.3131 7.56871 8.77011 6.41171 7.10711 6.44571C4.96711 6.47871 2.96511 7.71771 1.86711 9.64171C-0.398889 13.5647 1.29111 19.3297 3.46211 22.5007C4.54811 24.0537 5.81711 25.7877 7.47811 25.7267C9.10311 25.6597 9.71011 24.6907 11.6711 24.6907C13.6141 24.6907 14.1841 25.7267 15.8781 25.6877C17.6221 25.6597 18.7201 24.1277 19.7681 22.5607C21.0231 20.7807 21.5271 19.0277 21.5471 18.9377C21.5061 18.9237 18.1601 17.6467 18.1271 13.7837Z" fill="white"/>
<path d="M14.9271 4.3058C15.8011 3.2128 16.3991 1.7258 16.2331 0.216797C14.9681 0.272797 13.3861 1.0918 12.4751 2.1608C11.6691 3.1028 10.9491 4.6468 11.1351 6.0988C12.5561 6.2048 14.0151 5.3818 14.9271 4.3058Z" fill="white"/>
<path d="M41.6452 25.5038H39.3742L38.1302 21.5948H33.8062L32.6212 25.5038H30.4102L34.6942 12.1958H37.3402L41.6452 25.5038ZM37.7552 19.9548L36.6302 16.4798C36.5112 16.1248 36.2882 15.2888 35.9592 13.9728H35.9192C35.7882 14.5388 35.5772 15.3748 35.2872 16.4798L34.1822 19.9548H37.7552Z" fill="white"/>
<path d="M52.6629 20.5879C52.6629 22.2199 52.2219 23.5099 51.3399 24.4569C50.5499 25.2999 49.5689 25.7209 48.3979 25.7209C47.1339 25.7209 46.2259 25.2669 45.6729 24.3589H45.6329V29.4139H43.5009V19.0669C43.5009 18.0409 43.4739 16.9879 43.4219 15.9079H45.2969L45.4159 17.4289H45.4559C46.1669 16.2829 47.2459 15.7109 48.6939 15.7109C49.8259 15.7109 50.7709 16.1579 51.5269 17.0529C52.2849 17.9489 52.6629 19.1269 52.6629 20.5879ZM50.4909 20.6659C50.4909 19.7319 50.2809 18.9619 49.8589 18.3559C49.3979 17.7239 48.7789 17.4079 48.0029 17.4079C47.4769 17.4079 46.9989 17.5839 46.5719 17.9309C46.1439 18.2809 45.8639 18.7379 45.7329 19.3039C45.6669 19.5679 45.6339 19.7839 45.6339 19.9539V21.5539C45.6339 22.2519 45.8479 22.8409 46.2759 23.3219C46.7039 23.8029 47.2599 24.0429 47.9439 24.0429C48.7469 24.0429 49.3719 23.7329 49.8189 23.1149C50.2669 22.4959 50.4909 21.6799 50.4909 20.6659Z" fill="white"/>
<path d="M63.699 20.5879C63.699 22.2199 63.258 23.5099 62.375 24.4569C61.586 25.2999 60.605 25.7209 59.434 25.7209C58.17 25.7209 57.262 25.2669 56.71 24.3589H56.67V29.4139H54.538V19.0669C54.538 18.0409 54.511 16.9879 54.459 15.9079H56.334L56.453 17.4289H56.493C57.203 16.2829 58.282 15.7109 59.731 15.7109C60.862 15.7109 61.807 16.1579 62.565 17.0529C63.32 17.9489 63.699 19.1269 63.699 20.5879ZM61.527 20.6659C61.527 19.7319 61.316 18.9619 60.894 18.3559C60.433 17.7239 59.816 17.4079 59.039 17.4079C58.512 17.4079 58.035 17.5839 57.607 17.9309C57.179 18.2809 56.9 18.7379 56.769 19.3039C56.704 19.5679 56.67 19.7839 56.67 19.9539V21.5539C56.67 22.2519 56.884 22.8409 57.31 23.3219C57.738 23.8019 58.294 24.0429 58.98 24.0429C59.783 24.0429 60.408 23.7329 60.855 23.1149C61.303 22.4959 61.527 21.6799 61.527 20.6659Z" fill="white"/>
<path d="M76.0392 21.772C76.0392 22.904 75.6462 23.825 74.8572 24.536C73.9902 25.313 72.7832 25.701 71.2322 25.701C69.8002 25.701 68.6522 25.425 67.7832 24.872L68.2772 23.095C69.2132 23.661 70.2402 23.945 71.3592 23.945C72.1622 23.945 72.7872 23.763 73.2362 23.401C73.6832 23.039 73.9062 22.553 73.9062 21.947C73.9062 21.407 73.7222 20.952 73.3532 20.583C72.9862 20.214 72.3732 19.871 71.5172 19.554C69.1872 18.685 68.0232 17.412 68.0232 15.738C68.0232 14.644 68.4312 13.747 69.2482 13.049C70.0622 12.35 71.1482 12.001 72.5062 12.001C73.7172 12.001 74.7232 12.212 75.5262 12.633L74.9932 14.371C74.2432 13.963 73.3952 13.759 72.4462 13.759C71.6962 13.759 71.1102 13.944 70.6902 14.312C70.3352 14.641 70.1572 15.042 70.1572 15.517C70.1572 16.043 70.3602 16.478 70.7682 16.82C71.1232 17.136 71.7682 17.478 72.7042 17.847C73.8492 18.308 74.6902 18.847 75.2312 19.465C75.7702 20.081 76.0392 20.852 76.0392 21.772Z" fill="white"/>
<path d="M83.0881 17.5081H80.7381V22.1671C80.7381 23.3521 81.1521 23.9441 81.9821 23.9441C82.3631 23.9441 82.6791 23.9111 82.9291 23.8451L82.9881 25.4641C82.5681 25.6211 82.0151 25.7001 81.3301 25.7001C80.4881 25.7001 79.8301 25.4431 79.3551 24.9301C78.8821 24.4161 78.6441 23.5541 78.6441 22.3431V17.5061H77.2441V15.9061H78.6441V14.1491L80.7381 13.5171V15.9061H83.0881V17.5081Z" fill="white"/>
<path d="M93.692 20.6269C93.692 22.1019 93.27 23.3129 92.428 24.2599C91.545 25.2349 90.373 25.7209 88.912 25.7209C87.504 25.7209 86.383 25.2539 85.547 24.3199C84.711 23.3859 84.293 22.2069 84.293 20.7859C84.293 19.2989 84.723 18.0809 85.586 17.1339C86.447 16.1859 87.609 15.7119 89.07 15.7119C90.478 15.7119 91.611 16.1789 92.466 17.1139C93.284 18.0209 93.692 19.1919 93.692 20.6269ZM91.48 20.6959C91.48 19.8109 91.291 19.0519 90.908 18.4189C90.461 17.6529 89.822 17.2709 88.994 17.2709C88.137 17.2709 87.486 17.6539 87.039 18.4189C86.656 19.0529 86.467 19.8239 86.467 20.7359C86.467 21.6209 86.656 22.3799 87.039 23.0119C87.5 23.7779 88.144 24.1599 88.975 24.1599C89.789 24.1599 90.428 23.7699 90.889 22.9919C91.282 22.3469 91.48 21.5799 91.48 20.6959Z" fill="white"/>
<path d="M100.62 17.7829C100.409 17.7439 100.184 17.7239 99.9483 17.7239C99.1983 17.7239 98.6183 18.0069 98.2103 18.5739C97.8553 19.0739 97.6773 19.7059 97.6773 20.4689V25.5039H95.5463L95.5663 18.9299C95.5663 17.8239 95.5393 16.8169 95.4863 15.9089H97.3433L97.4213 17.7449H97.4803C97.7053 17.1139 98.0603 16.6059 98.5463 16.2249C99.0213 15.8819 99.5343 15.7109 100.087 15.7109C100.284 15.7109 100.462 15.7249 100.62 15.7499V17.7829Z" fill="white"/>
<path d="M110.157 20.2519C110.157 20.6339 110.132 20.9559 110.079 21.2189H103.683C103.708 22.1669 104.017 22.8919 104.611 23.3919C105.15 23.8389 105.847 24.0629 106.703 24.0629C107.65 24.0629 108.514 23.9119 109.291 23.6089L109.625 25.0889C108.717 25.4849 107.645 25.6819 106.408 25.6819C104.92 25.6819 103.752 25.2439 102.902 24.3689C102.054 23.4939 101.629 22.3189 101.629 20.8449C101.629 19.3979 102.024 18.1929 102.815 17.2319C103.643 16.2059 104.762 15.6929 106.17 15.6929C107.553 15.6929 108.6 16.2059 109.311 17.2319C109.874 18.0469 110.157 19.0549 110.157 20.2519ZM108.124 19.6989C108.138 19.0669 107.999 18.5209 107.71 18.0599C107.341 17.4669 106.774 17.1709 106.011 17.1709C105.314 17.1709 104.747 17.4599 104.314 18.0399C103.959 18.5009 103.748 19.0539 103.683 19.6979H108.124V19.6989Z" fill="white"/>
<path d="M31.424 1.27309C31.651 1.13709 31.907 1.02309 32.195 0.929086C32.482 0.835086 32.82 0.788086 33.209 0.788086C33.836 0.788086 34.33 0.937086 34.692 1.23409C35.054 1.53109 35.235 1.93209 35.235 2.43709C35.235 2.83809 35.114 3.17409 34.872 3.44609C34.63 3.71809 34.32 3.89909 33.945 3.98909V4.01809C34.152 4.05109 34.348 4.10709 34.532 4.18809C34.717 4.26909 34.879 4.37709 35.017 4.51309C35.156 4.64909 35.266 4.80709 35.347 4.98909C35.427 5.17009 35.468 5.37009 35.468 5.59109C35.468 5.95309 35.395 6.25709 35.249 6.50309C35.103 6.74909 34.913 6.94909 34.677 7.10509C34.442 7.26009 34.178 7.37209 33.887 7.43909C33.596 7.50609 33.305 7.54109 33.014 7.54109C32.703 7.54109 32.396 7.50809 32.092 7.44409C31.788 7.38009 31.507 7.27309 31.248 7.12409L31.51 6.31909C31.678 6.40309 31.895 6.48409 32.16 6.56209C32.425 6.64009 32.693 6.67809 32.965 6.67809C33.411 6.67809 33.756 6.57809 33.998 6.37809C34.24 6.17709 34.362 5.90909 34.362 5.57309C34.362 5.34609 34.313 5.16109 34.216 5.01509C34.118 4.86909 33.992 4.75509 33.837 4.67009C33.682 4.58609 33.509 4.52809 33.318 4.49609C33.127 4.46409 32.938 4.44709 32.751 4.44709H32.314V3.65009H32.751C32.951 3.65009 33.137 3.62509 33.309 3.57209C33.48 3.52109 33.629 3.44809 33.755 3.35409C33.881 3.26009 33.98 3.14809 34.051 3.01909C34.121 2.89009 34.157 2.74409 34.157 2.58209C34.157 2.29109 34.053 2.06309 33.846 1.89809C33.639 1.73309 33.361 1.65009 33.012 1.65009C32.773 1.65009 32.533 1.68909 32.294 1.76609C32.055 1.84409 31.841 1.92809 31.653 2.01809L31.424 1.27309Z" fill="white"/>
<path d="M39.7542 7.43305L39.6772 6.89005H39.6482C39.3322 7.32305 38.8732 7.54005 38.2712 7.54005C38.0572 7.54005 37.8642 7.50405 37.6892 7.43305C37.5142 7.36205 37.3622 7.26505 37.2332 7.14205C37.1032 7.01905 37.0042 6.87405 36.9322 6.70505C36.8612 6.53705 36.8262 6.35205 36.8262 6.15205C36.8262 5.56405 37.0652 5.12205 37.5442 4.82805C38.0232 4.53405 38.7012 4.38705 39.5812 4.38705V4.30005C39.5812 3.67905 39.2552 3.36905 38.6032 3.36905C38.1382 3.36905 37.7282 3.48605 37.3742 3.71805L37.1612 3.03005C37.5942 2.75905 38.1332 2.62305 38.7782 2.62305C40.0112 2.62305 40.6282 3.27305 40.6282 4.57305V6.30905C40.6282 6.79405 40.6512 7.16905 40.6962 7.43405H39.7542V7.43305ZM39.6092 5.08605C39.0242 5.08605 38.5882 5.16005 38.3022 5.30905C38.0162 5.45805 37.8732 5.70105 37.8732 6.03705C37.8732 6.28305 37.9402 6.46705 38.0752 6.59005C38.2102 6.71305 38.3812 6.77405 38.5872 6.77405C38.7222 6.77405 38.8502 6.75005 38.9732 6.70105C39.0952 6.65305 39.2022 6.58605 39.2952 6.50205C39.3892 6.41805 39.4642 6.31605 39.5232 6.19605C39.5812 6.07605 39.6092 5.94905 39.6092 5.81305V5.08605Z" fill="white"/>
<path d="M45.6828 2.71924V3.58224H43.7228V7.43324H42.6758V2.71924H45.6828Z" fill="white"/>
<path d="M51.6767 5.01809C51.6767 5.39309 51.6247 5.73609 51.5217 6.04609C51.4177 6.35709 51.2747 6.62209 51.0897 6.84109C50.9057 7.06109 50.6857 7.23309 50.4307 7.35509C50.1747 7.47809 49.8927 7.54009 49.5817 7.54009C48.9607 7.54009 48.5147 7.31709 48.2427 6.87109H48.2227V9.35409H47.1747V4.27109C47.1747 4.01909 47.1717 3.76509 47.1647 3.50909C47.1587 3.25409 47.1487 2.99009 47.1367 2.71809H48.0577L48.1167 3.46509H48.1367C48.4857 2.90309 49.0157 2.62109 49.7277 2.62109C50.0047 2.62109 50.2627 2.67909 50.4987 2.79509C50.7347 2.91209 50.9397 3.07509 51.1147 3.28509C51.2897 3.49509 51.4267 3.74709 51.5267 4.04209C51.6267 4.33709 51.6767 4.66209 51.6767 5.01809ZM50.6107 5.05709C50.6107 4.82409 50.5827 4.60909 50.5277 4.41209C50.4727 4.21509 50.3917 4.04709 50.2857 3.90809C50.1797 3.76909 50.0497 3.65909 49.8977 3.57809C49.7457 3.49709 49.5757 3.45709 49.3877 3.45709C49.2397 3.45709 49.0937 3.49009 48.9507 3.55409C48.8077 3.61809 48.6837 3.70609 48.5777 3.81609C48.4707 3.92609 48.3857 4.05909 48.3207 4.21409C48.2557 4.36909 48.2227 4.53409 48.2227 4.70909V5.49509C48.2227 5.66909 48.2497 5.83109 48.3057 5.98009C48.3607 6.12909 48.4377 6.25809 48.5377 6.36809C48.6377 6.47809 48.7577 6.56409 48.8967 6.62509C49.0357 6.68709 49.1887 6.71709 49.3567 6.71709C49.7517 6.71709 50.0587 6.56709 50.2787 6.26609C50.4987 5.96509 50.6107 5.56109 50.6107 5.05709Z" fill="white"/>
<path d="M57.3052 2.71924L56.1112 5.98824C55.8272 6.76424 55.5502 7.39924 55.2822 7.89424C55.0132 8.38924 54.7572 8.74924 54.5112 8.97624C54.1492 9.29924 53.7642 9.49724 53.3562 9.56724L53.1042 8.68524C53.3752 8.61424 53.6342 8.47524 53.8802 8.26824C54.1252 8.06124 54.3222 7.80324 54.4722 7.49224C54.5242 7.38924 54.5492 7.31824 54.5492 7.27924C54.5492 7.24024 54.5292 7.16624 54.4912 7.05624L52.7832 2.72024H53.9372L54.8302 5.34924C54.8762 5.47224 54.9212 5.61124 54.9662 5.76624C55.0122 5.92124 55.0602 6.09324 55.1122 6.28024H55.1322C55.1642 6.17624 55.2002 6.04624 55.2382 5.88724C55.2772 5.72924 55.3292 5.54624 55.3932 5.33924L56.1892 2.72024H57.3052V2.71924Z" fill="white"/>
<path d="M59.1184 4.67807H59.6024C59.9574 4.67807 60.2334 4.61407 60.4264 4.48407C60.6194 4.35407 60.7174 4.19607 60.7174 4.00807C60.7174 3.81407 60.6354 3.65907 60.4694 3.54307C60.3054 3.42707 60.0764 3.36807 59.7854 3.36807C59.5974 3.36807 59.4084 3.39907 59.2194 3.46007C59.0284 3.52207 58.8524 3.59807 58.6904 3.68807L58.4194 3.01007C58.6904 2.86207 58.9604 2.76007 59.2304 2.70507C59.4984 2.65007 59.7674 2.62207 60.0394 2.62207C60.2544 2.62207 60.4694 2.64307 60.6854 2.68507C60.9004 2.72707 61.0934 2.79807 61.2614 2.89807C61.4294 2.99807 61.5684 3.12907 61.6734 3.29107C61.7804 3.45307 61.8334 3.65307 61.8334 3.89307C61.8334 4.04207 61.8044 4.17307 61.7454 4.28607C61.6884 4.39907 61.6104 4.49907 61.5134 4.58607C61.4174 4.67307 61.3084 4.74507 61.1894 4.79907C61.0704 4.85407 60.9474 4.89507 60.8264 4.92107V4.95007C60.9804 4.97007 61.1314 5.00907 61.2774 5.06707C61.4224 5.12507 61.5524 5.20107 61.6704 5.29507C61.7854 5.38907 61.8794 5.50207 61.9514 5.63407C62.0214 5.76707 62.0564 5.91707 62.0564 6.08507C62.0564 6.36307 61.9904 6.59607 61.8534 6.78307C61.7184 6.97107 61.5444 7.11907 61.3334 7.22907C61.1244 7.33907 60.8924 7.41807 60.6404 7.46707C60.3884 7.51507 60.1424 7.54007 59.9044 7.54007C59.6134 7.54007 59.3244 7.50907 59.0414 7.44807C58.7564 7.38607 58.5004 7.29107 58.2734 7.16207L58.5464 6.47307C58.7144 6.56407 58.9054 6.64007 59.1224 6.70107C59.3394 6.76207 59.5604 6.79307 59.7864 6.79307C60.1414 6.79307 60.4154 6.72407 60.6064 6.58507C60.7954 6.44607 60.8914 6.27307 60.8914 6.06607C60.8914 5.93007 60.8604 5.81607 60.7954 5.72207C60.7304 5.62807 60.6394 5.55207 60.5244 5.49407C60.4074 5.43607 60.2724 5.39507 60.1164 5.37307C59.9624 5.35007 59.7924 5.33907 59.6124 5.33907H59.1184V4.67807Z" fill="white"/>
<path d="M64.7158 2.71929V4.38729C64.7158 4.76929 64.7098 5.11229 64.6958 5.41529C64.6818 5.71929 64.6668 6.03929 64.6468 6.37529L64.6668 6.39429C64.7898 6.14829 64.9108 5.90828 65.0298 5.67128C65.1508 5.43528 65.2718 5.19429 65.3948 4.94829L66.5588 2.71729H67.9158V7.43128H66.9258V5.76328C66.9258 5.41428 66.9358 5.06528 66.9508 4.71628C66.9668 4.36628 66.9838 4.01429 67.0038 3.65829H66.9548C66.8458 3.94929 66.7358 4.20129 66.6248 4.41529C66.5158 4.62829 66.4058 4.84828 66.2968 5.07528C66.0958 5.46328 65.8968 5.85129 65.6988 6.23929C65.5018 6.62729 65.2928 7.02529 65.0738 7.43229H63.7168V2.71929H64.7158Z" fill="white"/>
<path d="M73.4457 2.71924V3.58224H72.0107V7.43324H70.9807V3.58224H69.5547V2.71924H73.4457Z" fill="white"/>
<path d="M78.7896 4.85328C78.7896 4.94328 78.7856 5.02928 78.7796 5.11028C78.7736 5.19128 78.7636 5.26428 78.7506 5.32828H75.6076C75.6216 5.77428 75.7616 6.11928 76.0296 6.36128C76.2976 6.60328 76.6526 6.72528 77.0916 6.72528C77.5506 6.72528 77.9746 6.65128 78.3626 6.50228L78.5266 7.23028C78.0796 7.42428 77.5536 7.52128 76.9446 7.52128C76.5776 7.52128 76.2476 7.46428 75.9566 7.35128C75.6656 7.23828 75.4196 7.07828 75.2186 6.87128C75.0196 6.66428 74.8646 6.41528 74.7576 6.12428C74.6526 5.83328 74.5996 5.50728 74.5996 5.14528C74.5996 4.78328 74.6526 4.44828 74.7576 4.14128C74.8646 3.83428 75.0156 3.56728 75.2086 3.34128C75.4036 3.11428 75.6386 2.93728 75.9116 2.80728C76.1866 2.67828 76.4936 2.61328 76.8296 2.61328C77.1266 2.61328 77.3956 2.66628 77.6406 2.77328C77.8826 2.87928 78.0896 3.03128 78.2596 3.22928C78.4316 3.42628 78.5626 3.66328 78.6526 3.93728C78.7446 4.21128 78.7896 4.51728 78.7896 4.85328ZM77.7896 4.58228C77.7896 4.21328 77.7016 3.91428 77.5236 3.68528C77.3456 3.45628 77.0886 3.34028 76.7526 3.34028C76.4476 3.34028 76.1906 3.45628 75.9776 3.68928C75.7646 3.92228 75.6416 4.21928 75.6086 4.58228H77.7896Z" fill="white"/>
<path d="M83.0098 2.75788C83.1978 2.72588 83.4358 2.69988 83.7268 2.67988C84.0178 2.65988 84.3148 2.65088 84.6198 2.65088C84.8128 2.65088 85.0318 2.66288 85.2738 2.68488C85.5158 2.70688 85.7488 2.75888 85.9668 2.83988C86.1878 2.92088 86.3708 3.04188 86.5198 3.20388C86.6688 3.36588 86.7448 3.58488 86.7448 3.86288C86.7448 4.00588 86.7178 4.13388 86.6668 4.24588C86.6138 4.35888 86.5458 4.45788 86.4578 4.54188C86.3698 4.62588 86.2698 4.69588 86.1568 4.74988C86.0438 4.80488 85.9268 4.84588 85.8028 4.87088L85.8128 4.89988C86.1548 4.95788 86.4338 5.08088 86.6468 5.26888C86.8598 5.45688 86.9668 5.71488 86.9668 6.04488C86.9668 6.37488 86.8748 6.63688 86.6958 6.83088C86.5138 7.02488 86.2918 7.17088 86.0258 7.26788C85.7598 7.36488 85.4808 7.42688 85.1858 7.45288C84.8928 7.47788 84.6288 7.49188 84.3968 7.49188C84.1368 7.49188 83.8828 7.48588 83.6348 7.47188C83.3848 7.45888 83.1778 7.44588 83.0098 7.43288V2.75788ZM84.0178 4.63988H84.5508C84.7128 4.63988 84.8668 4.62888 85.0118 4.60588C85.1578 4.58388 85.2848 4.54788 85.3948 4.49988C85.5058 4.45088 85.5898 4.38688 85.6528 4.30588C85.7138 4.22488 85.7448 4.12688 85.7448 4.00988C85.7448 3.79688 85.6568 3.63988 85.4768 3.53988C85.2988 3.43988 85.0198 3.38988 84.6388 3.38988C84.5298 3.38988 84.4338 3.39288 84.3518 3.39988C84.2718 3.40588 84.1608 3.41588 84.0178 3.42888V4.63988ZM84.0178 6.72488C84.1468 6.73788 84.2558 6.74688 84.3418 6.75388C84.4298 6.76088 84.5308 6.76388 84.6488 6.76388C84.7918 6.76388 84.9358 6.75488 85.0848 6.73488C85.2328 6.71588 85.3698 6.67888 85.4928 6.62388C85.6158 6.56988 85.7138 6.49588 85.7878 6.40188C85.8618 6.30888 85.9008 6.18488 85.9008 6.03088C85.9008 5.76088 85.7798 5.57488 85.5418 5.47188C85.3018 5.36888 84.9798 5.31788 84.5708 5.31788H84.0178V6.72488Z" fill="white"/>
</svg>
